<svg aria-hidden="true" style="position: absolute; width: 0; height: 0; overflow: hidden;" version="1.1" xmlns="http://www.w3.org/2000/svg" xmlns:xlink="http://www.w3.org/1999/xlink">
<defs>
<symbol id="icon-Rectangle-31" viewBox="0 0 26 32">
<path fill="none" stroke="#70778b" style="stroke: var(--color1, #70778b)" stroke-linejoin="miter" stroke-linecap="butt" stroke-miterlimit="4" stroke-width="2.7826" d="M2.087 5.565c0-2.049 1.661-3.71 3.71-3.71h14.841c2.049 0 3.71 1.661 3.71 3.71v22.252c0 1.622-1.935 2.463-3.121 1.356l-6.743-6.296c-0.713-0.665-1.819-0.665-2.532 0l-6.743 6.296c-1.186 1.107-3.121 0.266-3.121-1.356v-22.252z"></path>
</symbol>
<symbol id="icon-Shape" viewBox="0 0 30 32">
<path fill="#70778b" style="fill: var(--color1, #70778b)" d="M21.664 23.855l-11.408-6.667c0.080-0.37 0.144-0.739 0.144-1.124s-0.064-0.755-0.144-1.125l11.28-6.602c0.864 0.803 2 1.301 3.264 1.301 2.656 0 4.8-2.153 4.8-4.819s-2.144-4.819-4.8-4.819c-2.656 0-4.8 2.153-4.8 4.819 0 0.386 0.064 0.755 0.144 1.125l-11.28 6.602c-0.864-0.803-2-1.301-3.264-1.301-2.656 0-4.8 2.153-4.8 4.819s2.144 4.819 4.8 4.819c1.264 0 2.4-0.498 3.264-1.301l11.392 6.683c-0.080 0.337-0.128 0.691-0.128 1.044 0 2.586 2.096 4.691 4.672 4.691s4.672-2.104 4.672-4.691c0-2.586-2.096-4.691-4.672-4.691-1.216 0-2.304 0.482-3.136 1.237z"></path>
</symbol>
<symbol id="icon-Location" viewBox="0 0 23 32">
<path fill="#878d9d" style="fill: var(--color1, #878d9d)" d="M11.556 32c0 0-11.556-10.719-11.556-19.556s5.174-12.444 11.556-12.444c6.382 0 11.556 3.608 11.556 12.444s-11.556 19.556-11.556 19.556zM11.556 17.778c3.436 0 6.222-2.786 6.222-6.222s-2.786-6.222-6.222-6.222c-3.436 0-6.222 2.786-6.222 6.222s2.786 6.222 6.222 6.222z"></path>
</symbol>
<symbol id="icon-star" viewBox="0 0 34 32">
<path fill="none" stroke="#3a4562" style="stroke: var(--color1, #3a4562)" stroke-linejoin="miter" stroke-linecap="butt" stroke-miterlimit="4" stroke-width="3.2" d="M20.796 10.497l0.362 0.926 1.591 0.14c0.38 0.034 0.916 0.083 1.543 0.142 1.255 0.118 2.867 0.274 4.303 0.433l0 0c0.071 0.008 0.144 0.016 0.218 0.024 0.759 0.083 1.634 0.178 2.366 0.334 0.012 0.002 0.023 0.005 0.035 0.007-0.834 1.057-2.219 2.633-3.458 4.009-0.654 0.726-1.255 1.384-1.693 1.861-0.219 0.238-0.397 0.431-0.52 0.564l-0.19 0.205-0.497 0.534 0.078 0.727 0 0.005 0.002 0.019 0.008 0.075 0.030 0.288c0.026 0.249 0.063 0.608 0.106 1.044 0.087 0.872 0.201 2.051 0.308 3.282l-4.592-14.617zM20.796 10.497l-0-0.001-0.002-0.004-0.008-0.019-0.031-0.079c-0.028-0.070-0.069-0.174-0.122-0.306-0.107-0.265-0.262-0.645-0.454-1.102-0.385-0.915-0.913-2.129-1.492-3.336-0.585-1.219-1.198-2.382-1.75-3.22-0.102-0.154-0.196-0.29-0.283-0.407-0.309 0.416-0.668 0.99-1.054 1.678-0.882 1.571-1.785 3.516-2.419 4.949-0.248 0.561-0.452 1.037-0.594 1.372-0.071 0.167-0.126 0.299-0.163 0.389l-0.042 0.101-0.013 0.032-0 0-0.369 0.903-1.102 0.097c-0.086 0.008-0.213 0.019-0.374 0.034-0.323 0.030-0.786 0.074-1.341 0.129-1.112 0.111-2.59 0.267-4.066 0.45l-0.001 0c-1.323 0.163-2.321 0.312-3.032 0.473 0.045 0.056 0.092 0.114 0.143 0.176 0.477 0.574 1.071 1.2 1.714 1.877 0.291 0.307 0.593 0.625 0.898 0.953l15.959-5.14zM6.833 20.27l1.216-1.040-0.001-0.001-0.004-0.004-0.013-0.016-0.051-0.060c-0.044-0.052-0.109-0.127-0.193-0.223-0.166-0.192-0.405-0.467-0.698-0.799-0.585-0.664-1.386-1.561-2.251-2.49l1.995 4.633zM6.833 20.27l1.594 0.141 0.059-0.669-0.437-0.511-1.216 1.040zM6.833 20.27l1.594 0.141M6.833 20.27l1.594 0.141M17.351 25.554l0.001 0 0.002 0.001 0.007 0.003 0.503 0.23c0.323 0.148 0.781 0.358 1.322 0.608 1.081 0.5 2.499 1.16 3.836 1.8 0 0 0.001 0 0.001 0l-0.69 1.443c0.431 0.206 0.848 0.415 1.244 0.615l-6.225-4.7zM17.351 25.554l-0.71-0.323M17.351 25.554l-0.71-0.323M16.641 25.231l-0.692 0.361M16.641 25.231l-0.692 0.361M15.949 25.592h-0M15.949 25.592h-0M15.949 25.592h-0M15.949 25.592h-0M15.949 25.592l-0 0M15.949 25.592l-0 0M15.949 25.592l-0 0-0.003 0.002-0.015 0.008-0.062 0.032c-0.056 0.028-0.139 0.071-0.246 0.125-0.215 0.109-0.527 0.265-0.911 0.452-0.769 0.375-1.821 0.871-2.959 1.359-0.674 0.289-1.339 0.62-1.946 0.928-0.109 0.055-0.216 0.11-0.32 0.163-0.493 0.251-0.937 0.476-1.352 0.669-0.206 0.095-0.388 0.174-0.549 0.238 0.004-0.124 0.011-0.259 0.020-0.406 0.043-0.685 0.124-1.442 0.212-2.256 0.056-0.517 0.114-1.057 0.167-1.618l0-0.001M15.949 25.592l-7.965-0.306M7.984 25.286c0.119-1.274 0.229-2.493 0.31-3.393M7.984 25.286l0.31-3.393M8.294 21.894c0.040-0.45 0.074-0.821 0.097-1.079M8.294 21.894l0.097-1.079M8.391 20.815l0.027-0.299M8.391 20.815l0.027-0.299M8.417 20.516l0.007-0.078M8.417 20.516l0.007-0.078M8.424 20.438l0.002-0.020M8.424 20.438l0.002-0.020M8.426 20.418l0-0.005M8.426 20.418l0-0.005M8.426 20.412l0-0.001M8.426 20.412l0-0.001M8.426 20.411l0-0M8.426 20.411l0-0M8.426 20.411l0-0M8.426 20.411l0-0M32.056 12.77c-0.002 0-0.016-0.007-0.039-0.024 0.029 0.015 0.041 0.024 0.039 0.024zM1.558 11.837c0.002 0.001 0.010 0.018 0.018 0.049-0.016-0.034-0.020-0.050-0.018-0.049zM1.224 12.899c-0.008 0.006-0.013 0.008-0.013 0.008s0.004-0.003 0.013-0.008zM17.142 1.471c0 0-0.006 0.005-0.017 0.012 0.012-0.009 0.017-0.012 0.017-0.012zM16.192 1.493c-0.019-0.012-0.029-0.020-0.029-0.021s0.010 0.005 0.029 0.021zM26.448 29.771c0 0-0.006 0-0.018-0.002 0.012 0.001 0.018 0.002 0.018 0.002zM25.68 28.215c0.044 0.502 0.078 0.959 0.096 1.324l-0.387-4.425c0-0-0-0-0-0.001 0.033 0.38 0.078 0.848 0.126 1.339l0.012 0.122c0.052 0.54 0.107 1.107 0.153 1.64zM6.841 29.784c0-0 0.005-0 0.013 0-0.009 0-0.013 0-0.013 0z"></path>
</symbol>

</defs></svg>